<svg xmlns="http://www.w3.org/2000/svg" viewBox="0 0 32 32" fill="none">
  <defs>
    <linearGradient id="g" x1="0" y1="0" x2="32" y2="32" gradientUnits="userSpaceOnUse">
      <stop offset="0%" stop-color="#84CC16"/>
      <stop offset="100%" stop-color="#15803D"/>
    </linearGradient>
  </defs>
  <path fill="url(#g)" fill-rule="evenodd" clip-rule="evenodd"
    d="M14.2 3a1 1 0 0 0-.98.8l-.5 2.3a8 8 0 0 0-1.8 1l-2.2-.7a1 1 0 0 0-1.1.5L5.5 9.1a1 1 0 0 0 .1 1.2l1.7 1.7a8 8 0 0 0 0 2l-1.7 1.7a1 1 0 0 0-.1 1.2l2.1 3.2a1 1 0 0 0 1.1.5l2.2-.7a8 8 0 0 0 1.8 1l.5 2.3a1 1 0 0 0 .98.8h3.6a1 1 0 0 0 .98-.8l.5-2.3a8 8 0 0 0 1.8-1l2.2.7a1 1 0 0 0 1.1-.5l2.1-3.2a1 1 0 0 0-.1-1.2l-1.7-1.7a8 8 0 0 0 0-2l1.7-1.7a1 1 0 0 0 .1-1.2l-2.1-3.2a1 1 0 0 0-1.1-.5l-2.2.7a8 8 0 0 0-1.8-1l-.5-2.3A1 1 0 0 0 17.8 3h-3.6Zm1.8 7.5a5.5 5.5 0 1 0 0 11 5.5 5.5 0 0 0 0-11ZM12.5 16a3.5 3.5 0 1 1 7 0 3.5 3.5 0 0 1-7 0Z"
  />
</svg>
